<?xml version="1.0" encoding="iso-8859-1"?>
<!-- Generator: Adobe Illustrator 18.0.0, SVG Export Plug-In . SVG Version: 6.00 Build 0)  -->
<!DOCTYPE svg PUBLIC "-//W3C//DTD SVG 1.1//EN" "http://www.w3.org/Graphics/SVG/1.1/DTD/svg11.dtd">
<svg version="1.1" id="Capa_1" xmlns="http://www.w3.org/2000/svg" xmlns:xlink="http://www.w3.org/1999/xlink" x="0px" y="0px"
	 viewBox="0 0 484.157 484.157" style="enable-background:new 0 0 484.157 484.157;" xml:space="preserve">
<g>
	<path d="M362.283,1.009H168.636c-28.29,0-51.317,23.041-51.317,51.314v5.5H20.678C9.259,57.823,0,67.076,0,78.503v113.301
		c0,11.426,9.259,20.676,20.678,20.676h96.642v219.353c0,28.306,23.026,51.315,51.317,51.315h264.221
		c28.275,0,51.3-23.01,51.3-51.315V122.458L362.283,1.009z M107.785,108.415H84.042v70.448H64.294v-70.448H40.945V91.898h66.839
		V108.415z M138.013,91.898v86.966h-19.74V91.898H138.013z M432.857,451.722H168.636c-10.955,0-19.874-8.92-19.874-19.89V212.48
		h147.95c11.418,0,20.677-9.25,20.677-20.676V78.503c0-11.427-9.259-20.68-20.677-20.68h-147.95v-5.5
		c0-10.936,8.92-19.857,19.874-19.857l181.89-0.189V99.51c0,19.638,15.934,35.587,35.585,35.587l65.863-0.188l0.74,296.924
		C452.715,442.802,443.81,451.722,432.857,451.722z M206.034,127.895v15.997h-31.228v34.972h-19.741V91.898h53.161v16.124h-33.42
		v19.873H206.034z M274.073,127.895v15.997h-31.229v34.972h-19.739V91.898h53.159v16.124h-33.419v19.873H274.073z"/>
	<path d="M300.739,303.859c-17.628,0-31.971,14.358-31.971,31.978c0,17.62,14.342,31.946,31.971,31.946
		c17.62,0,31.954-14.326,31.954-31.946C332.693,318.217,318.359,303.859,300.739,303.859z"/>
	<path d="M389.815,264.914H261.81v-15.207c0-3.373-2.727-6.101-6.099-6.101h-29.843c-3.365,0-6.091,2.728-6.091,6.101v15.207h-8.116
		c-8.503,0-15.39,6.888-15.39,15.384v111.046c0,8.495,6.886,15.397,15.39,15.397h178.154c8.503,0,15.39-6.902,15.39-15.397V280.298
		C405.205,271.802,398.319,264.914,389.815,264.914z M232.393,312.384c-6.965,0-12.616-5.656-12.616-12.623
		c0-6.965,5.651-12.623,12.616-12.623c6.983,0,12.631,5.658,12.631,12.623C245.025,306.728,239.376,312.384,232.393,312.384z
		 M300.739,381.714c-25.312,0-45.895-20.582-45.895-45.877c0-25.313,20.583-45.895,45.895-45.895
		c25.304,0,45.887,20.582,45.887,45.895C346.625,361.132,326.042,381.714,300.739,381.714z M387.79,300.202
		c0,3.357-2.718,6.084-6.091,6.084h-25.249c-3.365,0-6.091-2.726-6.091-6.084v-13.932c0-3.373,2.726-6.099,6.091-6.099h25.249
		c3.373,0,6.091,2.726,6.091,6.099V300.202z"/>
</g>
<g>
</g>
<g>
</g>
<g>
</g>
<g>
</g>
<g>
</g>
<g>
</g>
<g>
</g>
<g>
</g>
<g>
</g>
<g>
</g>
<g>
</g>
<g>
</g>
<g>
</g>
<g>
</g>
<g>
</g>
</svg>
